<?xml version="1.0" encoding="utf-8"?>
<!-- Generator: Adobe Illustrator 16.0.0, SVG Export Plug-In . SVG Version: 6.00 Build 0)  -->
<!DOCTYPE svg PUBLIC "-//W3C//DTD SVG 1.1//EN" "http://www.w3.org/Graphics/SVG/1.1/DTD/svg11.dtd">
<svg version="1.1" id="Layer_1" xmlns="http://www.w3.org/2000/svg" xmlns:xlink="http://www.w3.org/1999/xlink" x="0px" y="0px"
	 width="172.721px" height="161.113px" viewBox="0 0 172.721 161.113" enable-background="new 0 0 172.721 161.113"
	 xml:space="preserve">
<g>
	<g opacity="0.2">
		<g>
			<path fill="#26899D" d="M123.854,102.24c0,32.514-26.359,58.873-58.875,58.873S6.104,134.754,6.104,102.24
				c0-32.518,26.359-58.877,58.875-58.877S123.854,69.723,123.854,102.24z"/>
		</g>
	</g>
	<g opacity="0.4">
		<g>
			<path fill="#80C342" d="M130.014,0h-16.139H96.711h-16.14c-6.761,0-12.238,5.482-12.238,12.238v49.439
				c0,6.76,5.478,12.238,12.238,12.238h17.532h14.378h17.532c6.762,0,12.236-5.479,12.236-12.238V12.238
				C142.25,5.482,136.775,0,130.014,0z"/>
		</g>
	</g>
	<g>
		<g>
			<path d="M98.94,8.889H50.33c-6.51,0-11.958,4.623-13.243,10.758h3.095c1.223-4.465,5.303-7.758,10.148-7.758h48.61
				c5.807,0,10.531,4.725,10.531,10.535v73.52c0,5.809-4.725,10.533-10.531,10.533H50.33c-5.808,0-10.532-4.725-10.532-10.533
				v-7.195h-3v7.195c0,7.463,6.07,13.533,13.532,13.533h48.61c7.461,0,13.531-6.07,13.531-13.533v-73.52
				C112.472,14.961,106.401,8.889,98.94,8.889z"/>
		</g>
	</g>
	<g>
		<g>
			<path d="M94.252,33.955H54.64c-0.828,0-1.5-0.671-1.5-1.5s0.672-1.5,1.5-1.5h39.612c0.828,0,1.5,0.671,1.5,1.5
				S95.08,33.955,94.252,33.955z"/>
		</g>
	</g>
	<g>
		<g>
			<path d="M94.252,44.297H54.64c-0.828,0-1.5-0.671-1.5-1.5s0.672-1.5,1.5-1.5h39.612c0.828,0,1.5,0.671,1.5,1.5
				S95.08,44.297,94.252,44.297z"/>
		</g>
	</g>
	<g>
		<g>
			<path d="M94.252,54.641H54.64c-0.828,0-1.5-0.671-1.5-1.5s0.672-1.5,1.5-1.5h39.612c0.828,0,1.5,0.671,1.5,1.5
				S95.08,54.641,94.252,54.641z"/>
		</g>
	</g>
	<g>
		<g>
			<path d="M94.252,64.982H54.64c-0.828,0-1.5-0.671-1.5-1.5s0.672-1.5,1.5-1.5h39.612c0.828,0,1.5,0.671,1.5,1.5
				S95.08,64.982,94.252,64.982z"/>
		</g>
	</g>
	<g>
		<g>
			<path d="M74.635,81.768H54.64c-0.828,0-1.5-0.672-1.5-1.5s0.672-1.5,1.5-1.5h19.995c0.828,0,1.5,0.672,1.5,1.5
				S75.463,81.768,74.635,81.768z"/>
		</g>
	</g>
	<g>
		<g>
			<g>
				<g>
					<path fill="#FFFFFF" d="M64.008,90.535l-6.694,33.414h12.232l31.936,26.285c0,0,4.225,4.107,6.719,2.51
						c2.493-1.598,4.139-4.723,3.435-7.277c-0.703-2.555-3.435-3.826-3.435-3.826l4.695,4.012c0,0,6.108,2.471,7.333,0.303
						c1.224-2.166,0-8.354,0-8.354l-2.5-2.602c0,0,3.872,3.115,5.883,4.564c2.01,1.451,5.742,1.656,7.182-0.998
						c1.439-2.652,0.144-6.025-1.313-7.316c-1.457-1.289-2.393-2.117-2.393-2.117s6.77,9.23,11.892,3.188
						s-3.845-10.496-3.845-10.496l-19.416-15.275l-10.162,10.803c0,0-9.029,7.605-15.013,2.637
						c-5.984-4.971-2.751-10.057,0.045-11.926s17.233-17.152,17.233-17.152L64.008,90.535z"/>
				</g>
			</g>
			<g>
				<g>
					<g>
						<path fill="#FFFFFF" d="M148.118,87.102h-36.472l-21.441,21.342c-2.218,1.832-3.373,4.797-2.746,7.807
							c0.901,4.33,5.146,7.109,9.472,6.207c1.427-0.295,2.549-0.828,3.564-1.734l0.143-0.121l15.543-14.482l21.518,17.83h17.826
							L148.118,87.102z"/>
					</g>
					<g>
						<path d="M157.355,125.449h-20.198l-20.919-17.334l-14.772,13.751c-1.17,1.044-2.523,1.707-4.231,2.06
							c-0.639,0.134-1.294,0.201-1.944,0.201c-4.476,0-8.387-3.185-9.3-7.571c-0.716-3.438,0.512-6.964,3.204-9.223l21.833-21.731
							h38.319L157.355,125.449z M138.239,122.449h15.454l-6.804-33.848h-34.624L91.16,109.6c-1.87,1.546-2.726,3.977-2.232,6.345
							c0.625,3.003,3.301,5.183,6.362,5.183c0.445,0,0.894-0.047,1.334-0.139c1.189-0.245,2.074-0.673,2.872-1.385l0.171-0.146
							l16.456-15.335L138.239,122.449z"/>
					</g>
				</g>
				<g>
					<g>
						<path d="M102.011,152.078c-0.338,0-0.679-0.114-0.959-0.348l-31.545-26.281H55.483l7.295-36.414H108.2
							c0.828,0,1.5,0.672,1.5,1.5s-0.672,1.5-1.5,1.5H65.237l-6.094,30.414h11.449l32.379,26.977
							c0.637,0.53,0.723,1.476,0.192,2.112C102.867,151.895,102.44,152.078,102.011,152.078z"/>
					</g>
				</g>
				<g>
					<g>
						<path d="M106.627,154.473c-1.632,0-3.271-0.572-4.586-1.736l-2.922-2.593c-0.62-0.55-0.677-1.498-0.127-2.117
							c0.551-0.621,1.498-0.676,2.117-0.127l2.921,2.592c1.621,1.434,4.107,1.282,5.54-0.339c1.434-1.621,1.281-4.107-0.339-5.543
							l-2.747-2.432l1.939-2.287l2.668,2.166l2.798,2.472c1.618,1.436,4.104,1.286,5.542-0.336c1.432-1.621,1.281-4.108-0.338-5.542
							l-2.749-2.434l1.964-2.268l2.555,2.164l2.773,2.452c0.786,0.696,1.788,1.04,2.842,0.981c1.046-0.063,2.005-0.531,2.7-1.316
							c1.435-1.622,1.282-4.108-0.339-5.543l-2.747-2.432l1.945-2.282l1.485,1.219l2.791,2.47c1.621,1.436,4.107,1.284,5.541-0.337
							c1.434-1.62,1.282-4.106-0.338-5.542l-2.749-2.434c-0.62-0.549-0.678-1.497-0.129-2.117c0.548-0.62,1.497-0.679,2.117-0.129
							l2.749,2.434c2.859,2.531,3.126,6.918,0.596,9.777c-1.787,2.017-4.502,2.738-6.943,2.105c0.052,1.701-0.519,3.426-1.733,4.799
							c-1.226,1.386-2.918,2.21-4.765,2.322c-1.137,0.067-2.248-0.138-3.257-0.591c-0.077,1.513-0.647,3.01-1.726,4.23
							c-2.085,2.354-5.423,2.951-8.133,1.678c-0.066,1.53-0.637,3.048-1.728,4.282C110.45,153.685,108.543,154.473,106.627,154.473z
							"/>
					</g>
				</g>
			</g>
		</g>
		<g opacity="0.4">
			<g>
				<path fill="#80C342" d="M65.086,123.184c-0.926,4.764-5.539,8.627-10.304,8.627h-8.309c-4.765,0-7.875-3.863-6.949-8.627
					l6.467-33.266c0.926-4.766,5.538-8.629,10.302-8.629h8.31c4.764,0,7.876,3.863,6.95,8.629L65.086,123.184z"/>
			</g>
		</g>
		<g opacity="0.4">
			<g>
				<path fill="#80C342" d="M146.996,122.162c0.926,4.762,5.539,8.625,10.304,8.625h8.309c4.765,0,7.875-3.863,6.949-8.625
					l-6.466-33.27c-0.927-4.764-5.538-8.625-10.303-8.625h-8.309c-4.765,0-7.877,3.861-6.95,8.625L146.996,122.162z"/>
			</g>
		</g>
	</g>
	<g>
		<g>
			<g>
				<path fill="#80C342" d="M37.759,55.502v3.83c1.214,0.678,2.044,1.955,2.044,3.441l0.001,10.488
					c0.001,2.182-1.772,3.955-3.949,3.955h-2.428c-2.179,0-3.951-1.773-3.95-3.953l-0.001-10.488
					c-0.001-1.488,0.831-2.766,2.046-3.443l0.001-3.832c-3.229,0.848-5.62,3.783-5.622,7.275l0.002,10.486
					c0,4.152,3.375,7.527,7.522,7.527h2.428c4.148,0,7.526-3.375,7.526-7.525v-10.49C43.377,59.283,40.986,56.35,37.759,55.502z"/>
			</g>
		</g>
		<g>
			<g>
				<path fill="#80C342" d="M34.641,42.084c-0.987,0-1.788,0.799-1.788,1.789l-0.001,2.27l0.001,12.738v0.811l0.001,3.523v0.979
					c0,0.988,0.8,1.789,1.786,1.787c0.987,0.002,1.788-0.799,1.786-1.785l0.001-0.98v-3.523v-0.811l0.001-12.736l-0.001-2.273
					C36.427,42.887,35.625,42.084,34.641,42.084z"/>
			</g>
		</g>
		<g>
			<g>
				<path fill="#80C342" d="M35.854,27.055h-2.428c-4.148,0-7.523,3.373-7.523,7.523V45.07c0,3.49,2.391,6.422,5.62,7.27
					l-0.004-3.83c-1.212-0.676-2.043-1.957-2.043-3.441v-10.49c0-2.178,1.771-3.951,3.95-3.951h2.429
					c2.176,0,3.948,1.773,3.95,3.951l-0.002,10.49c0,1.484-0.83,2.766-2.044,3.439l-0.001,3.834
					c3.228-0.846,5.621-3.785,5.621-7.273v-10.49C43.377,30.43,40,27.055,35.854,27.055z"/>
			</g>
		</g>
	</g>
	<g>
		<g>
			<path d="M133.793,38.457H111.07c-0.828,0-1.5-0.671-1.5-1.5s0.672-1.5,1.5-1.5h19.723V22.289h21.472c0.828,0,1.5,0.671,1.5,1.5
				s-0.672,1.5-1.5,1.5h-18.472V38.457z"/>
		</g>
	</g>
	<g>
		<g>
			<circle fill="#FFFFFF" cx="152.265" cy="23.789" r="5.334"/>
		</g>
		<g>
			<path d="M152.265,30.623c-3.769,0-6.834-3.066-6.834-6.834s3.065-6.834,6.834-6.834s6.834,3.066,6.834,6.834
				S156.033,30.623,152.265,30.623z M152.265,19.955c-2.114,0-3.834,1.72-3.834,3.834s1.72,3.834,3.834,3.834
				s3.834-1.72,3.834-3.834S154.379,19.955,152.265,19.955z"/>
		</g>
	</g>
	<g>
		<g>
			<line fill="#FFFFFF" x1="36.798" y1="95.943" x2="14.07" y2="95.943"/>
		</g>
		<g>
			<path d="M36.798,97.443H14.07c-0.828,0-1.5-0.672-1.5-1.5s0.672-1.5,1.5-1.5h22.728c0.828,0,1.5,0.672,1.5,1.5
				S37.626,97.443,36.798,97.443z"/>
		</g>
	</g>
	<g>
		<g>
			<circle fill="#FFFFFF" cx="6.834" cy="95.943" r="5.334"/>
		</g>
		<g>
			<path d="M6.834,102.777C3.065,102.777,0,99.712,0,95.943s3.065-6.834,6.834-6.834s6.834,3.065,6.834,6.834
				S10.603,102.777,6.834,102.777z M6.834,92.109C4.72,92.109,3,93.829,3,95.943s1.72,3.834,3.834,3.834s3.834-1.72,3.834-3.834
				S8.948,92.109,6.834,92.109z"/>
		</g>
	</g>
</g>
</svg>
